<svg width="55" height="54" viewBox="0 0 55 54" fill="none" xmlns="http://www.w3.org/2000/svg">
<g clip-path="url(#clip0_18_720)">
<path d="M55 27C55 12.0883 42.6878 0 27.5 0C12.3122 0 0 12.0883 0 27C0 41.9117 12.3122 54 27.5 54C42.6878 54 55 41.9117 55 27Z" fill="#F16063"/>
<path d="M15.4688 35.4375C17.8418 35.4375 19.7656 33.5487 19.7656 31.2188C19.7656 28.8888 17.8418 27 15.4688 27C13.0957 27 11.1719 28.8888 11.1719 31.2188C11.1719 33.5487 13.0957 35.4375 15.4688 35.4375Z" fill="#EAC0B3"/>
<path d="M15.4688 34.5938H30.0781V55.5778C30.0781 55.5778 26.9474 57.375 22.7734 57.375C18.5995 57.375 15.4688 54.4413 15.4688 54.4413V34.5938Z" fill="#EAC0B3"/>
<path d="M29.9156 44.8132C29.9156 49.3568 29.1679 48.9265 24.3013 48.9265C19.4347 48.9265 17.1891 45.2436 17.1891 40.7C17.1891 36.1572 17.0043 32.0625 20.9317 32.0625C32.0374 32.4641 29.9156 40.2697 29.9156 44.8132Z" fill="#C99688"/>
<path d="M39.4333 30.4594C39.4333 37.9873 38.2422 47.2441 28.7891 47.2441C19.336 47.2441 14.9772 37.9873 14.9772 30.4594C12.8906 21.5156 13.3203 10.9688 27.5 10.9688C41.6797 10.9688 39.4333 22.9306 39.4333 30.4594Z" fill="#F5D0C5"/>
<path d="M32.6562 34.5938H31.7969C31.3223 34.5938 30.9375 34.9715 30.9375 35.4375C30.9375 35.9035 31.3223 36.2812 31.7969 36.2812H32.6562C33.1309 36.2812 33.5156 35.9035 33.5156 35.4375C33.5156 34.9715 33.1309 34.5938 32.6562 34.5938Z" fill="#EAC0B3"/>
<path d="M32.6562 50.625H13.75C9.47842 50.625 6.01562 54.0248 6.01562 58.2188V62.4375C6.01562 66.6314 9.47842 70.0312 13.75 70.0312H32.6562C36.9278 70.0312 40.3906 66.6314 40.3906 62.4375V58.2188C40.3906 54.0248 36.9278 50.625 32.6562 50.625Z" fill="#3633E0"/>
<path d="M14.6094 48.9375H30.9375V51.4688C30.9375 51.4688 26.6406 52.3125 22.7734 52.3125C18.9062 52.3125 14.6094 51.4688 14.6094 51.4688V48.9375Z" fill="#3633E0"/>
<path d="M14.6094 48.9375H30.9375V50.625C30.9375 50.625 28.3594 51.8906 22.7734 51.8906C17.1875 51.8906 14.6094 50.625 14.6094 50.625V48.9375Z" fill="#362ABC"/>
<path d="M14.1797 49.7812C14.1797 49.3337 14.3608 48.9045 14.6831 48.588C15.0054 48.2715 15.4426 48.0938 15.8984 48.0938H29.6484C30.1043 48.0938 30.5415 48.2715 30.8638 48.588C31.1861 48.9045 31.3672 49.3337 31.3672 49.7812C31.3672 49.7812 27.0703 50.625 22.7734 50.625C18.4766 50.625 14.1797 49.7812 14.1797 49.7812Z" fill="#3633E0"/>
<path fill-rule="evenodd" clip-rule="evenodd" d="M41.25 21.0937C41.2496 17.1026 39.649 13.272 36.7944 10.4305C33.9399 7.58891 30.0608 5.96479 25.9961 5.90935C21.9314 5.85391 18.0079 7.37161 15.0741 10.1342C12.1402 12.8968 10.4319 16.6823 10.3185 20.6719H10.3125V54.8437H19.7656V29.1912C21.9012 28.7879 25.5922 27.9003 30.2569 26.0221C34.9525 24.1312 37.8821 22.3442 39.4247 21.2659C39.6327 23.3955 39.5605 25.6196 39.4934 27.6868C39.4625 28.6537 39.4324 29.5852 39.4324 30.4585C39.4324 30.8028 39.4255 31.1487 39.4109 31.4955C39.6095 31.4339 39.7951 31.3664 39.9601 31.293C41.2491 30.7159 41.2491 29.9455 41.2491 29.9455V21.0937H41.25ZM12.8906 27.8437C12.2736 28.2969 11.7926 28.9053 11.4984 29.6047C11.1335 30.47 11.0722 31.43 11.3243 32.3333C11.5764 33.2366 12.1274 34.0318 12.8906 34.5937V27.8437Z" fill="#1B0B47"/>
<path d="M24.8608 38.8125C24.8608 38.5887 24.9514 38.3741 25.1125 38.2159C25.2737 38.0576 25.4923 37.9688 25.7202 37.9688H33.5775C33.8054 37.9688 34.024 38.0576 34.1851 38.2159C34.3463 38.3741 34.4369 38.5887 34.4369 38.8125C34.4369 39.9314 33.9841 41.0044 33.1783 41.7956C32.3725 42.5868 31.2796 43.0312 30.14 43.0312H29.1577C28.0181 43.0312 26.9252 42.5868 26.1194 41.7956C25.3135 41.0044 24.8608 39.9314 24.8608 38.8125Z" fill="#66253C"/>
<path fill-rule="evenodd" clip-rule="evenodd" d="M31.5863 42.7866C31.1221 42.9491 30.6328 43.0319 30.14 43.0313H29.1577C28.0479 43.0313 26.9811 42.6096 26.1807 41.8547C25.3804 41.0998 24.9087 40.0701 24.8643 38.9813C25.5208 38.7399 26.4954 38.7678 27.457 38.7956C27.7629 38.8041 28.0671 38.8125 28.3593 38.8125C30.2586 38.8125 31.7968 40.1347 31.7968 41.7656C31.7968 42.1242 31.7221 42.4685 31.5863 42.7866Z" fill="#B03E67"/>
<path d="M25.7812 37.9688H34.375V38.8125C34.375 39.0363 34.2845 39.2509 34.1233 39.4091C33.9621 39.5674 33.7435 39.6562 33.5156 39.6562H26.6406C26.4127 39.6562 26.1941 39.5674 26.033 39.4091C25.8718 39.2509 25.7812 39.0363 25.7812 38.8125V37.9688Z" fill="white"/>
<path d="M28.3594 31.6406C28.3594 30.9416 27.7822 30.375 27.0703 30.375C26.3584 30.375 25.7812 30.9416 25.7812 31.6406V32.4844C25.7812 33.1834 26.3584 33.75 27.0703 33.75C27.7822 33.75 28.3594 33.1834 28.3594 32.4844V31.6406Z" fill="#1B0B47"/>
<path d="M36.9531 31.6406C36.9531 30.9416 36.376 30.375 35.6641 30.375C34.9521 30.375 34.375 30.9416 34.375 31.6406V32.4844C34.375 33.1834 34.9521 33.75 35.6641 33.75C36.376 33.75 36.9531 33.1834 36.9531 32.4844V31.6406Z" fill="#1B0B47"/>
</g>
<defs>
<clipPath id="clip0_18_720">
<rect width="55" height="54" rx="27" fill="white"/>
</clipPath>
</defs>
</svg>
