<svg width="30" height="30" viewBox="0 0 30 30" fill="none" xmlns="http://www.w3.org/2000/svg">
<path d="M5 10H25M5 10V21.0002C5 22.4004 5 23.1001 5.27248 23.6349C5.51217 24.1053 5.89434 24.4881 6.36475 24.7278C6.899 25 7.59874 25 8.99614 25H21.0039C22.4013 25 23.1 25 23.6342 24.7278C24.1046 24.4881 24.4881 24.1053 24.7278 23.6349C25 23.1006 25 22.4019 25 21.0045V10M5 10V9.00024C5 7.60011 5 6.89953 5.27248 6.36475C5.51217 5.89434 5.89434 5.51217 6.36475 5.27248C6.89953 5 7.60011 5 9.00024 5H10M25 10V8.99614C25 7.59874 25 6.899 24.7278 6.36475C24.4881 5.89434 24.1046 5.51217 23.6342 5.27248C23.0995 5 22.4004 5 21.0002 5H20M10 5H20M10 5V2.5M20 5V2.5M20 15H10" stroke="#398C67" stroke-width="2" stroke-linecap="round" stroke-linejoin="round"/>
</svg>
