<svg width="20" height="20" viewBox="0 0 20 20" fill="none" xmlns="http://www.w3.org/2000/svg">
<path d="M3.33325 6.66666H16.6666M3.33325 6.66666V14.0002C3.33325 14.9336 3.33325 15.4 3.51491 15.7566C3.6747 16.0702 3.92948 16.3254 4.24308 16.4852C4.59925 16.6667 5.06575 16.6667 5.99734 16.6667H14.0025C14.9341 16.6667 15.3999 16.6667 15.7561 16.4852C16.0697 16.3254 16.3253 16.0702 16.4851 15.7566C16.6666 15.4004 16.6666 14.9346 16.6666 14.003V6.66666M3.33325 6.66666V6.00015C3.33325 5.06673 3.33325 4.59967 3.51491 4.24315C3.6747 3.92955 3.92948 3.67477 4.24308 3.51498C4.5996 3.33332 5.06666 3.33332 6.00008 3.33332H6.66659M16.6666 6.66666V5.99741C16.6666 5.06582 16.6666 4.59932 16.4851 4.24315C16.3253 3.92955 16.0697 3.67477 15.7561 3.51498C15.3996 3.33332 14.9335 3.33332 14.0001 3.33332H13.3333M6.66659 3.33332H13.3333M6.66659 3.33332V1.66666M13.3333 3.33332V1.66666M12.4999 9.99999L9.16659 13.3333L7.49992 11.6667" stroke="#398C67" stroke-width="2" stroke-linecap="round" stroke-linejoin="round"/>
</svg>
