<svg width="38" height="38" viewBox="0 0 38 38" fill="none" xmlns="http://www.w3.org/2000/svg">
<path d="M3.16663 31.6668H6.33329M6.33329 31.6668H15.8333M6.33329 31.6668V18.1327C6.33329 17.2866 6.33329 16.8634 6.43616 16.4697C6.52733 16.1208 6.67813 15.7907 6.88066 15.4923C7.10919 15.1557 7.42681 14.8765 8.06352 14.3194L15.666 7.6672C16.8464 6.63439 17.4366 6.11795 18.1013 5.92138C18.6874 5.74805 19.3122 5.74805 19.8983 5.92138C20.5635 6.1181 21.1546 6.63502 22.3367 7.66939L29.9367 14.3194C30.5734 14.8765 30.8912 15.1557 31.1197 15.4923C31.3222 15.7907 31.4719 16.1208 31.563 16.4697C31.6659 16.8634 31.6666 17.2866 31.6666 18.1327V31.6668M15.8333 31.6668H22.1666M15.8333 31.6668V25.3335C15.8333 23.5846 17.2511 22.1668 19 22.1668C20.7489 22.1668 22.1666 23.5846 22.1666 25.3335V31.6668M22.1666 31.6668H31.6666M31.6666 31.6668H34.8333" stroke="#398C67" stroke-width="2" stroke-linecap="round" stroke-linejoin="round"/>
</svg>
