<svg width="391" height="143" viewBox="0 0 391 143" fill="none" xmlns="http://www.w3.org/2000/svg">
<path d="M0 4C0 1.79086 1.79086 0 4 0H387C389.209 0 391 1.79086 391 4V139C391 141.209 389.209 143 387 143H4C1.79086 143 0 141.209 0 139V4Z" fill="white"/>
<path d="M328.984 34.5051C327.842 31.8351 326.649 29.0493 318.576 30.9336C314.241 31.9453 310.608 35.52 307.637 40.8285C305.402 45.0503 303.514 50.5096 302.008 57.0552C298.971 70.2512 297.668 87.2692 298.216 103.877C298.228 104.25 297.935 104.562 297.562 104.573L297.403 104.577C297.122 104.585 296.888 104.365 296.878 104.084C296.494 92.7022 296.975 81.1216 298.286 70.6828C298.451 69.3733 297.983 68.0555 296.982 67.1952C290.926 61.9896 284.305 57.9618 279.372 56.5478C266.655 54.0944 263.296 60.5761 263.379 66.3581C263.395 67.4154 263.817 68.2947 264.242 69.1806C264.682 70.0966 265.125 71.0195 265.125 72.1533C265.125 72.9053 263.204 74.4585 260.705 76.4776C255.794 80.447 248.655 86.2169 249.512 91.2382C250.304 95.8785 255.325 99.4021 259.947 101.296C260.4 101.482 260.893 101.826 261.486 102.241C261.908 102.536 262.38 102.866 262.925 103.2L262.966 103.225C263.394 103.483 264.1 103.847 265.085 104.316L265.388 104.461C279.313 111.033 295.474 106.605 300.51 104.971C300.705 104.907 300.908 104.873 301.114 104.871L336.49 104.527C336.503 104.527 336.513 104.515 336.511 104.502C336.501 104.451 336.485 104.376 336.464 104.278C336.129 102.686 334.552 95.2086 337.909 92.1953C348.393 82.7852 359.89 55.855 344.259 44.5701C340.805 42.0763 337.377 40.5602 334.745 39.3959C333.146 38.6887 331.841 38.1113 331.001 37.5234C329.966 36.7993 329.48 35.6631 328.984 34.5051Z" fill="#ABEDC6"/>
<path fill-rule="evenodd" clip-rule="evenodd" d="M265.741 64.6468C264.954 64.5271 266.345 65.8927 266.345 65.8927C266.345 65.8927 266.528 64.7665 265.741 64.6468Z" fill="#979797"/>
<path fill-rule="evenodd" clip-rule="evenodd" d="M278.17 100.311C278.045 102.659 275.596 103.931 273.579 102.724C271.372 101.404 269.059 99.482 269.059 97.2279C269.059 95.9639 269.963 96.0853 271.77 97.5921C271.966 97.756 272.248 98.0076 272.615 98.3469C272.839 98.5547 267.766 93.1642 270.322 92.1559C272.814 91.173 273.394 96.2758 273.524 96.2054C273.669 96.127 273.626 94.5832 274.203 93.9005C274.514 93.5328 275.428 93.4542 276.119 93.9005C277.977 95.1001 278.299 97.8806 278.17 100.311Z" fill="#979797"/>
<path fill-rule="evenodd" clip-rule="evenodd" d="M272.155 71.5846C272.712 72.0491 272.362 72.8941 271.653 72.744C270.849 72.5739 270.088 72.3054 269.883 71.8868C269.482 71.068 271.243 71.3239 271.828 71.4292C271.949 71.451 272.061 71.5057 272.155 71.5846Z" fill="#979797"/>
<path fill-rule="evenodd" clip-rule="evenodd" d="M267.932 68.3851C267.145 67.9996 267.592 67.0806 267.932 67.0424C268.937 66.9292 269.73 68.878 269.841 69.0731C270.033 69.411 268.331 68.5807 267.932 68.3851Z" fill="#979797"/>
<path fill-rule="evenodd" clip-rule="evenodd" d="M276.086 74.3648C276.047 74.3168 276.015 74.2662 275.991 74.2092C275.734 73.6131 274.249 70.0256 275.884 70.336C276.977 70.5436 277.207 72.5026 277.221 73.9862C277.227 74.6095 276.481 74.8469 276.086 74.3648Z" fill="#979797"/>
<path fill-rule="evenodd" clip-rule="evenodd" d="M274.734 71.1641C274.76 71.8606 275.1 72.9294 275.753 74.3866C275.762 74.4064 275.773 74.4252 275.788 74.4426L276.914 75.8175C277.073 76.0115 277.422 75.9282 277.447 75.6904L277.467 75.4847C277.784 72.1556 277.327 70.3464 275.946 70.0843C275.143 69.9318 274.705 70.352 274.734 71.1641ZM275.851 70.5939C276.709 70.7863 277.107 72.1786 276.933 74.7916C276.929 74.8462 276.861 74.868 276.826 74.8257L276.32 74.2083C276.298 74.1818 276.28 74.1524 276.267 74.121L276.176 73.9162C275.628 72.6548 275.344 71.7276 275.323 71.1478L275.321 71.0668C275.32 70.6275 275.458 70.5187 275.822 70.5877L275.851 70.5939Z" fill="#00160A"/>
<path fill-rule="evenodd" clip-rule="evenodd" d="M269.228 91.8955C267.988 92.3847 268.074 93.6188 269.02 95.2999L269.093 95.427C269.266 95.7248 269.464 96.0327 269.682 96.3484L269.752 96.4472C269.753 96.4492 269.751 96.4519 269.748 96.4506C269.394 96.2446 269.089 96.1239 268.826 96.0886C268.128 95.9949 267.773 96.4448 267.773 97.2279C267.773 100.243 270.683 102.792 276.426 104.895C276.613 104.963 276.824 104.868 276.87 104.696C278.389 99.0054 277.911 95.3224 275.353 93.6707C274.568 93.1639 273.433 93.1955 272.981 93.7307L272.941 93.7791C272.749 94.0264 272.615 94.3519 272.516 94.7565C272.514 94.7614 272.508 94.7616 272.506 94.7567L272.498 94.73C272.428 94.4877 272.353 94.2593 272.268 94.0303C271.988 93.2714 271.653 92.6754 271.232 92.2766C270.679 91.7516 269.991 91.5948 269.228 91.8955ZM272.038 95.5141L272.181 96.1055L272.197 96.1669C272.208 96.2041 272.218 96.234 272.227 96.2593C272.24 96.2935 272.254 96.3217 272.276 96.3517C272.303 96.3889 272.336 96.4216 272.389 96.4497C272.493 96.5044 272.626 96.5076 272.736 96.4483C272.877 96.372 272.911 96.3065 272.95 96.0905L272.968 95.9826C272.981 95.9028 273.027 95.5638 273.035 95.51C273.067 95.2958 273.098 95.119 273.136 94.9505C273.227 94.5552 273.348 94.2565 273.506 94.0703C273.721 93.8156 274.446 93.7954 274.965 94.1303L275.033 94.1752C277.191 95.6292 277.658 98.9231 276.361 104.078L276.356 104.097C276.338 104.171 276.259 104.212 276.188 104.185C270.99 102.201 268.425 99.8756 268.425 97.2279C268.425 96.747 268.521 96.6256 268.727 96.6532C269.091 96.7021 269.728 97.0843 270.585 97.7988L270.694 97.8917C270.825 98.0041 270.985 98.1471 271.175 98.3204L271.428 98.5529C271.432 98.5559 271.437 98.5601 271.447 98.5675C271.45 98.5704 271.453 98.574 271.455 98.5782C271.456 98.5797 271.457 98.5812 271.458 98.5825C271.468 98.5935 271.498 98.5997 271.635 98.6223C271.686 98.6306 271.738 98.627 271.787 98.6119C271.858 98.5884 271.881 98.5714 271.926 98.5124C271.952 98.4782 271.97 98.4389 271.981 98.3975C271.992 98.3563 271.99 98.3466 271.985 98.3109L271.97 98.2603C271.967 98.2504 271.965 98.2453 271.961 98.2379L271.958 98.2319C271.949 98.2153 271.944 98.2068 271.936 98.1958L271.847 98.0912L271.621 97.8292C271.582 97.7837 271.543 97.7374 271.499 97.6859C271.127 97.244 270.766 96.7876 270.427 96.3165C270.11 95.8751 269.832 95.4495 269.606 95.0475C268.807 93.629 268.744 92.7132 269.496 92.4163C270.402 92.0589 271.098 92.7185 271.647 94.2059C271.797 94.6103 271.915 95.0174 272.038 95.5141Z" fill="#00160A"/>
<path fill-rule="evenodd" clip-rule="evenodd" d="M270.24 69.2305L270.508 69.4441C273.833 72.0997 276.148 74.2186 277.382 75.6889C279.536 78.2553 281.271 80.9172 282.734 83.7358C283.254 84.7376 283.724 85.7294 284.188 86.7825L284.314 87.0713C284.459 87.4038 284.599 87.7323 284.751 88.0964L285.4 89.663C287.155 93.8686 286.574 94.0737 284.903 89.983L284.247 88.3968C284.109 88.0672 283.983 87.7694 283.857 87.4754L283.761 87.2553C283.261 86.1032 282.757 85.032 282.195 83.9498C280.749 81.1622 279.033 78.5311 276.905 75.9953L276.808 75.8804C275.543 74.4073 273.196 72.2781 269.843 69.6137C269.722 69.5177 269.713 69.354 269.823 69.2482C269.932 69.1424 270.119 69.1345 270.24 69.2305ZM262.458 63.3648L266.599 66.4571C266.987 66.7484 267.289 66.9767 267.434 67.0881C267.556 67.1826 267.568 67.3461 267.46 67.4533C267.352 67.5605 267.165 67.5708 267.043 67.4763L265.965 66.6636C264.534 65.591 262.275 63.9089 262.074 63.758C261.95 63.665 261.935 63.5017 262.041 63.3931C262.148 63.2845 262.334 63.2718 262.458 63.3648Z" fill="#00160A"/>
<path fill-rule="evenodd" clip-rule="evenodd" d="M270.11 71.0409C269.567 71.1487 269.384 71.5212 269.613 71.9883C269.994 72.7676 271.41 73.1701 273.864 73.2803C274.136 73.2926 274.28 73.0016 274.082 72.8367L272.215 71.2781C272.177 71.2469 272.131 71.2249 272.081 71.2142C271.17 71.02 270.522 70.9591 270.11 71.0409ZM271.78 71.6811C271.836 71.6925 271.888 71.7178 271.932 71.7546L273.027 72.6676C273.044 72.6821 273.032 72.7105 273.01 72.7086L272.826 72.6916C271.258 72.538 270.367 72.2199 270.154 71.7853L270.132 71.7387C270.066 71.5958 270.09 71.5732 270.241 71.5433C270.518 71.4881 271.039 71.5315 271.78 71.6811Z" fill="#00160A"/>
<path fill-rule="evenodd" clip-rule="evenodd" d="M268.382 106.144C267.641 106.517 267.943 106.906 269.541 107.527C271.266 108.205 274.477 109.516 279.991 109.885C288.532 110.457 296.309 109.378 306.126 109.378C319.717 109.378 325.683 111.991 330.44 111.388C343.192 109.773 346.081 106.638 342.277 105.829C338.1 104.94 324.825 105.049 320.356 104.794L318.973 104.716L317.785 104.69C304.923 104.414 284.305 104.69 280.278 104.69C272.064 104.69 268.382 106.144 268.382 106.144Z" fill="#979797"/>
<path fill-rule="evenodd" clip-rule="evenodd" d="M306.126 109.378C319.717 109.378 325.683 112.081 330.44 111.479C343.192 109.863 346.081 106.638 342.277 105.829C341.006 105.558 338.717 105.344 336.042 105.178C334.199 105.063 336.753 107.113 335.448 108.419C332.711 111.158 325.897 107.849 313.522 107.945C310.972 107.965 306.126 109.378 306.126 109.378Z" fill="#E7EAEE"/>
<path fill-rule="evenodd" clip-rule="evenodd" d="M281.093 104.807C280.762 104.809 280.497 104.81 280.278 104.81L279.903 104.811C274.563 104.832 270.668 105.324 268.201 106.297L268.163 106.315C267.587 106.605 267.366 107.032 267.728 107.471C267.962 107.755 268.452 108.023 269.279 108.349L269.982 108.624C270.86 108.964 271.38 109.149 272.161 109.389L272.246 109.415C274.5 110.104 277.001 110.574 279.958 110.772C282.059 110.913 284.2 110.961 286.547 110.933L287.368 110.92C288.912 110.892 290.226 110.845 292.628 110.732L296.78 110.531C300.736 110.343 303.149 110.269 305.998 110.266L306.126 110.266C311.226 110.266 315.391 110.606 320.012 111.268L320.413 111.326C321.109 111.432 324.938 112.022 325.995 112.155L326.032 112.16C327.877 112.387 329.242 112.433 330.503 112.273L330.856 112.227C336.583 111.479 340.722 110.363 342.813 109.129C344.901 107.896 344.712 106.483 342.45 105.975L342.38 105.959C340.502 105.56 336.935 105.338 331.394 105.193L330.257 105.165C329.926 105.157 329.584 105.149 329.224 105.141L324.4 105.044C322.542 105.003 321.403 104.969 320.54 104.923L319.001 104.837L317.796 104.81L316.571 104.786C313.019 104.721 308.776 104.69 303.92 104.687H302.476C299.092 104.689 295.589 104.704 291.679 104.729L281.093 104.807ZM305.049 105.457C309.897 105.464 314.099 105.501 317.575 105.574L318.962 105.604L320.54 105.693C321.408 105.738 322.545 105.772 324.374 105.812L329.021 105.906C329.569 105.917 330.075 105.929 330.56 105.941L331.698 105.97C336.981 106.113 340.415 106.332 342.173 106.706L342.278 106.729C343.737 107.064 343.784 107.628 342.321 108.492C340.321 109.673 332.108 112.838 326.305 111.759L326.038 111.726C324.811 111.566 320.7 110.759 320.458 110.724L319.862 110.639C315.412 110.012 311.35 109.683 306.454 109.669L305.742 109.669C302.814 109.676 300.292 109.761 296.007 109.969L293.034 110.114C290.158 110.251 288.786 110.3 286.997 110.328L286.853 110.331C277.779 110.639 272.246 108.789 272.246 108.789C271.522 108.563 269.648 107.993 269.648 107.993L269.509 107.938C265.138 106.639 274.682 105.6 279.911 105.579L281.541 105.574L291.011 105.502C295.419 105.472 299.301 105.456 303.055 105.456L305.049 105.457Z" fill="#00160A"/>
<path fill-rule="evenodd" clip-rule="evenodd" d="M325.215 99.261C325.215 99.261 325.192 100.4 325.593 100.927C325.994 101.455 327.111 102.921 328.151 103.307C328.471 103.426 329.694 103.441 330.428 103.816C331.904 104.571 332.232 105.93 330.428 106.217C326.846 106.789 325.593 105.137 325.593 105.137C325.593 105.137 324.118 103.307 322.639 102.093C321.16 100.879 319.982 100.514 319.982 100.514" fill="#979797"/>
<path d="M337.576 49.1742C337.078 49.1415 336.785 49.4731 336.785 49.8745C336.785 51.2642 339.379 53.1646 341.07 53.1646C341.566 53.1646 341.971 52.8544 341.827 52.3803C341.773 52.2016 341.648 52.0431 341.443 51.8477L341.398 51.8052C341.168 51.5913 340.93 51.4003 340.396 50.9985L339.579 50.3854C339.378 50.2335 339.059 49.9913 338.963 49.9192L338.847 49.8329C338.623 49.668 338.451 49.548 338.296 49.4525C338.024 49.2839 337.812 49.1897 337.576 49.1742Z" fill="#979797"/>
<path fill-rule="evenodd" clip-rule="evenodd" d="M324.363 76.2103C322.414 76.1891 320.488 74.9304 318.84 73.8902C318.451 73.6447 318.004 73.4373 317.493 73.303C316.691 73.0919 320.201 77.7263 317.103 79.4551C316.136 79.9948 314.417 80.2748 312.302 80.5383C302.872 81.7128 300.029 78.6339 294.207 77.1304C291.873 76.5275 280.52 73.8605 278.803 87.4458C277.729 95.9492 285.867 98.5846 293.16 99.9357C307.771 102.642 330.159 101.576 337.141 92.6544C345.464 82.0201 332.672 72.7593 330.869 71.7804C330.433 71.5433 331.685 74.5824 331.824 76.1195C331.936 77.3655 330.187 77.1797 329.008 76.7622C328.417 76.553 327.643 76.3833 326.629 76.309C325.774 76.2463 325.02 76.2174 324.363 76.2103Z" fill="#979797"/>
<path fill-rule="evenodd" clip-rule="evenodd" d="M264.956 65.0996C265.09 65.375 265.4 65.7397 265.905 66.2354C266.239 66.5627 266.857 66.3993 266.928 65.9653C267.089 64.9736 266.752 64.2776 265.842 64.1393C265.13 64.031 264.67 64.5081 264.956 65.0996ZM266.345 65.8927L266.255 65.8033C265.405 64.9552 265.234 64.5697 265.741 64.6468C266.266 64.7266 266.467 65.1419 266.345 65.8927Z" fill="#00160A"/>
<path fill-rule="evenodd" clip-rule="evenodd" d="M267.894 66.7869C267.563 66.8242 267.294 67.1641 267.219 67.5396C267.134 67.9714 267.317 68.3794 267.788 68.6099L268.113 68.7673C268.426 68.9174 268.707 69.0463 268.981 69.1613L269.107 69.2137C269.311 69.2962 269.476 69.3539 269.602 69.384C269.73 69.4149 269.827 69.4237 269.931 69.3905C270.153 69.3195 270.192 69.1359 270.116 68.9796L270.091 68.9322C270.061 68.8693 269.985 68.7111 269.941 68.6229L269.932 68.6039C269.813 68.3661 269.692 68.1468 269.558 67.9377C269.064 67.1633 268.533 66.715 267.894 66.7869ZM269.105 68.2862C269.185 68.4175 269.261 68.5548 269.336 68.6999C269.345 68.7167 269.328 68.7351 269.31 68.728L269.288 68.7191L269.236 68.697C268.885 68.5497 268.515 68.3754 268.076 68.1604C267.839 68.0442 267.754 67.8566 267.799 67.6275C267.819 67.5279 267.864 67.4315 267.92 67.361C267.937 67.3395 267.954 67.322 267.969 67.3093L267.973 67.3064C267.976 67.3035 267.974 67.2975 267.969 67.2979C268.276 67.2633 268.662 67.589 269.044 68.1887L269.105 68.2862Z" fill="#00160A"/>
<path fill-rule="evenodd" clip-rule="evenodd" d="M272.929 71.2292C272.876 71.0298 269.944 66.3536 272.003 66.5005C274.062 66.6474 273.572 71.9472 273.5 71.9472C273.416 71.9472 272.966 71.3725 272.929 71.2292Z" fill="#979797"/>
<path fill-rule="evenodd" clip-rule="evenodd" d="M270.976 67.197C270.977 67.6444 271.147 68.2367 271.453 68.9563C271.545 69.1723 271.648 69.3968 271.761 69.6297L271.83 69.7705C272.102 70.3184 272.646 71.3049 272.642 71.2869C272.671 71.3983 272.793 71.5842 272.955 71.7884L273.014 71.8628C273.211 72.108 273.309 72.1967 273.476 72.2043L273.546 72.2058C273.746 72.215 273.746 72.2751 273.792 72.0209L273.809 71.9279C273.815 71.8898 273.823 71.8401 273.83 71.7809L273.834 71.7443C273.852 71.579 273.869 71.3635 273.88 71.1276C273.909 70.5184 273.901 69.8662 273.844 69.2579L273.828 69.1035C273.644 67.3978 273.11 66.321 272.027 66.2438C271.335 66.1944 270.976 66.5732 270.976 67.197ZM271.979 66.7572C272.669 66.8064 273.112 67.7525 273.257 69.3C273.312 69.8855 273.32 70.5168 273.292 71.1061L273.283 71.2624C273.283 71.2685 273.275 71.2706 273.272 71.2656C273.243 71.2229 273.224 71.1906 273.217 71.1765L273.216 71.1716C273.203 71.1233 272.612 70.0536 272.37 69.5654C272.233 69.2898 272.111 69.0267 272.005 68.7766C271.721 68.1102 271.565 67.5677 271.565 67.197C271.565 66.8593 271.664 66.7433 271.948 66.7554L271.979 66.7572Z" fill="#00160A"/>
<path fill-rule="evenodd" clip-rule="evenodd" d="M279.478 80.6925C280.455 80.7217 281.362 80.2709 282.029 79.5554C282.289 79.2752 282.131 78.7771 281.751 78.7345C279.347 78.4653 273.385 77.6617 270.99 76.102C267.029 73.5224 263.476 69.2437 259.897 68.3388C255.619 67.2569 254.035 69.7662 252.801 69.9708C249.042 70.594 242.156 72.3677 245.305 77.7247C246.277 79.3785 249.426 80.1476 251.644 79.2256C254.12 78.1964 257.169 75.6754 260.376 75.6754C264.084 75.6754 264.73 78.3337 269.438 79.7431C271.566 80.3804 276.846 80.6137 279.478 80.6925Z" fill="#979797"/>
<path fill-rule="evenodd" clip-rule="evenodd" d="M295.917 100.38C294.544 100.167 293.695 101.889 294.471 103.041C295.357 104.354 295.047 105.067 296.277 105.674C298.124 106.586 300.028 106.356 300.876 105.871C301.723 105.386 300.928 104.144 299.152 104.144C298.715 104.144 298.201 103.267 297.952 102.686C297.89 102.541 297.851 102.343 297.826 102.128C297.734 101.313 297.191 100.579 296.381 100.453L295.917 100.38Z" fill="#979797"/>
<path fill-rule="evenodd" clip-rule="evenodd" d="M337.281 78.0127C336.85 77.3335 335.16 78.6843 335.404 79.451C337.015 84.4981 336.38 91.1918 325.607 96.018C311.908 102.155 289.4 98.8415 289.4 98.8415C289.4 98.8415 313.902 104.605 329.916 97.6563C340.135 93.2226 342.156 85.686 337.281 78.0127Z" fill="#E7EAEE"/>
<path fill-rule="evenodd" clip-rule="evenodd" d="M330.448 71.549C330.623 71.3456 330.897 71.343 331.101 71.4539C331.759 71.8111 332.948 72.6755 334.093 73.6895C335.681 75.0969 337.099 76.6916 338.186 78.4105C341.163 83.1168 340.897 88.0439 337.119 92.8716C333.779 97.1388 327.245 99.7142 318.074 100.868C310.052 101.877 300.765 101.737 293.069 100.312L292.683 100.239C288.279 99.3978 285.033 98.3292 282.576 96.6776C279.355 94.5113 277.852 91.4801 278.367 87.4036C279.147 81.233 281.935 77.8036 286.137 76.6022C287.7 76.1557 289.373 76.0459 291.1 76.195C292.285 76.2972 293.279 76.4899 294.332 76.7618L294.519 76.8108C295.663 77.1143 296.636 77.4494 298.137 78.0313L299.247 78.4663C301.546 79.3682 302.877 79.796 304.6 80.0999C306.768 80.4824 309.154 80.5274 312.05 80.181L312.48 80.1276C314.844 79.826 316.112 79.5523 316.867 79.1311C317.75 78.6381 318.066 77.839 317.939 76.7325C317.882 76.2291 317.739 75.6982 317.514 75.0792L317.451 74.9123C317.354 74.6594 317.07 73.9488 317.017 73.7943C316.953 73.6031 316.923 73.4699 316.933 73.346C316.96 73.0352 317.271 72.8434 317.62 72.935C319.462 73.4197 320.784 74.8273 321.597 77.1091C321.669 77.3117 321.54 77.5271 321.308 77.5902C321.077 77.6534 320.83 77.5403 320.758 77.3376C320.14 75.6006 319.237 74.4707 318.054 73.9188C318.026 73.906 317.996 73.9341 318.008 73.9631L318.296 74.6996L318.305 74.723C319.117 77.7522 318.514 80.1276 313.053 80.8616C312.753 80.902 306.715 81.3566 304.208 80.8137C300.41 79.9913 295.019 76.9224 291.788 76.8108C288.556 76.6992 287.846 76.9224 286.41 77.3328C282.558 78.434 279.354 82.0006 278.707 87.8912C278.366 91.0017 280.286 94.1534 283.435 96.0949C291.448 101.036 310.03 101.271 317.949 100.275C326.901 99.1491 333.607 96.4898 336.778 92.4373C340.354 87.8681 340.244 83.2501 337.418 78.7827C336.372 77.13 335.003 75.5899 333.468 74.2295C332.768 73.6098 332.053 73.0497 331.473 72.6413C331.44 72.6186 331.397 72.6494 331.408 72.6876L331.46 72.866L331.732 73.7804L331.831 74.1229C331.847 74.177 331.862 74.2298 331.876 74.2818L331.928 74.4699C332.112 75.1454 332.223 75.6697 332.261 76.0892C332.366 77.2487 331.983 78.0915 331.091 78.5474C330.882 78.6544 330.613 78.5927 330.49 78.4095C330.368 78.2262 330.438 77.9909 330.648 77.8838C331.214 77.5944 331.466 77.0398 331.386 76.1498C331.352 75.7778 331.247 75.285 331.072 74.6432L331.023 74.4645C331.002 74.388 330.979 74.3097 330.956 74.2281L330.573 72.9341C330.516 72.7381 330.474 72.584 330.439 72.4499L330.429 72.4102C330.371 72.1771 330.34 72.0103 330.338 71.8846C330.337 71.756 330.358 71.6535 330.448 71.549Z" fill="#00160A"/>
<path fill-rule="evenodd" clip-rule="evenodd" d="M320.966 75.9974L321.279 75.9511C323.351 75.6521 325.023 75.544 326.301 75.6287C327.649 75.718 329.078 76.0369 330.588 76.5836C330.787 76.6558 330.882 76.8556 330.799 77.0299C330.717 77.2042 330.489 77.287 330.289 77.2149C328.852 76.6945 327.503 76.3934 326.242 76.3099C324.974 76.2259 323.258 76.3454 321.098 76.6706C320.886 76.7026 320.684 76.5779 320.647 76.3919C320.611 76.206 320.753 76.0294 320.966 75.9974Z" fill="#00160A"/>
<path fill-rule="evenodd" clip-rule="evenodd" d="M323.463 74.4648C324.397 74.2967 325.252 74.3836 326.014 74.728C326.743 75.0576 327.375 75.4724 327.908 75.9717C328.02 76.0761 328.013 76.2399 327.894 76.3375C327.775 76.4351 327.587 76.4295 327.476 76.3251C326.99 75.8696 326.412 75.4907 325.742 75.1878C325.105 74.8997 324.388 74.8268 323.582 74.9718C323.422 75.0005 323.265 74.9103 323.232 74.7703C323.199 74.6303 323.303 74.4935 323.463 74.4648Z" fill="#00160A"/>
<path fill-rule="evenodd" clip-rule="evenodd" d="M325.353 73.1095C325.437 72.9868 325.619 72.9468 325.759 73.0202C326.509 73.4127 327.13 73.8518 327.62 74.3382C328.116 74.8293 328.522 75.457 328.842 76.2198C328.899 76.354 328.82 76.5027 328.667 76.5519C328.513 76.6012 328.343 76.5323 328.287 76.3981C327.991 75.6925 327.62 75.1205 327.177 74.6807C326.728 74.2362 326.155 73.8306 325.455 73.4644C325.315 73.3911 325.269 73.2321 325.353 73.1095Z" fill="#00160A"/>
<path fill-rule="evenodd" clip-rule="evenodd" d="M316.783 79.2592C316.907 79.1046 317.15 79.0671 317.327 79.1754C317.504 79.2836 313.735 83.9802 313.735 84.8914C313.735 85.8796 314.289 86.5409 315.767 87.584L316.393 88.0196L316.575 88.1474C317.491 88.7949 318.025 89.2492 318.478 89.826C319.112 90.6322 319.411 91.5323 319.335 92.5997C319.241 93.9164 318.787 94.8262 317.887 95.8762L317.806 95.9702C317.705 96.0844 317.259 96.5821 317.137 96.7278C316.702 97.2478 316.497 97.6394 316.46 98.0991C316.296 100.125 317.385 102.571 319.751 105.428C319.877 105.581 319.838 105.794 319.664 105.905C319.489 106.016 319.245 105.982 319.118 105.829C316.655 102.853 315.502 100.264 315.681 98.0508C315.729 97.4638 315.973 96.9774 316.449 96.3946L316.507 96.3242C316.647 96.1569 317.158 95.5867 317.201 95.5373C318.058 94.5536 319.297 93.1144 318.305 90.3757C317.806 88.9968 313.063 88.0196 312.908 85.0845C312.871 84.393 314.188 82.5005 316.783 79.2592Z" fill="#00160A"/>
<path d="M318.188 93.6017C318.204 93.529 318.148 93.4604 318.073 93.4611L317.674 93.4649C314.449 93.501 312.487 93.6433 311.881 93.8707L311.859 93.8792C310.968 94.2368 310.267 94.7216 309.732 95.3027C309.315 95.754 309.022 96.2377 308.829 96.7206C308.772 96.8645 308.728 96.999 308.695 97.1215C308.681 97.1758 308.695 97.2335 308.732 97.2754L309.605 98.2543C309.614 98.2648 309.623 98.2756 309.63 98.2866L309.64 98.2978L309.669 98.3354C309.87 98.5911 310.099 98.8411 310.393 99.1326L310.529 99.2647C310.771 99.4955 311.54 100.221 311.801 100.482C312.361 101.041 312.832 101.579 313.283 102.196C313.97 103.137 314.577 104.223 315.121 105.539L315.16 105.635L315.2 105.733C315.247 105.855 315.294 105.98 315.344 106.121L315.574 106.781C315.913 107.754 316.151 108.2 316.526 108.471L316.59 108.515C317.082 108.851 317.541 108.933 318.818 108.969L319.191 108.978C320.888 109.019 321.773 107.839 320.802 106.983C320.497 106.714 319.493 106.506 317.851 106.418C317.635 106.407 317.837 105.922 317.851 105.733C317.864 105.545 318.049 105.402 318.264 105.413C318.474 105.424 318.603 105.18 318.476 105.013C316.528 102.441 315.584 100.228 315.743 98.2543C315.791 97.6674 315.719 97.4377 316.195 96.8549L316.286 96.7459C316.459 96.5434 316.907 96.0436 316.947 95.9976C317.313 95.5771 317.569 95.2325 317.773 94.8565L317.814 94.7809L317.827 94.7537L317.85 94.7098C317.958 94.4942 318.072 94.1225 318.188 93.6017Z" fill="#979797"/>
<path fill-rule="evenodd" clip-rule="evenodd" d="M309.05 96.812C309.358 97.5972 309.894 98.0764 310.641 98.8182L310.747 98.9213C310.933 99.1008 311.779 99.8977 312.056 100.174C312.615 100.733 313.086 101.27 313.537 101.888C314.225 102.828 314.831 103.915 315.376 105.231C315.402 105.294 315.428 105.359 315.454 105.425L315.525 105.612C315.541 105.655 315.557 105.699 315.574 105.744L315.667 106.006C315.714 106.143 315.811 106.422 315.828 106.473L315.88 106.618C316.192 107.491 316.424 107.906 316.781 108.162L316.844 108.207C317.316 108.528 317.757 108.618 318.914 108.656L319.445 108.67C321.142 108.71 322.027 107.531 321.056 106.675C320.752 106.406 319.747 106.198 318.105 106.11C317.89 106.099 317.726 105.937 317.739 105.749C317.752 105.56 317.937 105.417 318.152 105.428L318.357 105.44C320.072 105.544 321.139 105.777 321.611 106.194C323.131 107.535 321.777 109.371 319.493 109.354L319.219 109.348C317.588 109.309 317.004 109.207 316.285 108.69C315.772 108.321 315.494 107.825 315.136 106.826L314.904 106.161L314.83 105.952C314.798 105.864 314.768 105.783 314.738 105.705L314.715 105.646C314.69 105.583 314.666 105.522 314.641 105.463C314.116 104.194 313.535 103.153 312.879 102.256C312.484 101.715 312.072 101.238 311.59 100.747L311.468 100.624C311.187 100.343 310.269 99.4786 310.141 99.3538C309.308 98.5395 308.811 97.8816 308.456 97.0149L308.42 96.9245C307.729 95.1619 306.843 94.5606 305.685 94.9362C305.483 95.0017 303.22 95.9514 305.411 94.6766C307.603 93.4017 309.05 96.812 309.05 96.812Z" fill="#00160A"/>
<path fill-rule="evenodd" clip-rule="evenodd" d="M322.673 84.677C322.248 84.677 321.637 83.6078 321.637 83.0855C321.637 82.5631 323.165 82.7398 323.165 82.7398C323.165 82.7398 324.769 82.928 324.548 83.4534C324.327 83.9788 322.909 84.677 322.673 84.677Z" fill="#EAC0B3"/>
<path d="M321.001 80.8309C321.001 81.5914 320.624 82.208 320.158 82.208C319.693 82.208 319.316 81.5914 319.316 80.8309C319.316 80.0703 319.693 79.4537 320.158 79.4537C320.624 79.4537 321.001 80.0703 321.001 80.8309Z" fill="#00160A"/>
<path d="M329.139 81.1424C329.139 81.891 328.725 82.4979 328.215 82.4979C327.705 82.4979 327.292 81.891 327.292 81.1424C327.292 80.3937 327.705 79.7868 328.215 79.7868C328.725 79.7868 329.139 80.3937 329.139 81.1424Z" fill="#00160A"/>
<path fill-rule="evenodd" clip-rule="evenodd" d="M327.613 83.4181C328.316 83.1538 329.094 83.1038 329.939 83.2652C330.766 83.4231 333.255 84.7863 333.168 84.9073C333.081 85.0282 330.56 83.9136 329.813 83.7709C329.085 83.6317 328.432 83.6736 327.846 83.8937C327.696 83.9501 327.522 83.8894 327.458 83.758C327.393 83.6267 327.463 83.4745 327.613 83.4181Z" fill="#00160A"/>
<path fill-rule="evenodd" clip-rule="evenodd" d="M328.061 84.3126C328.799 84.3468 328.991 84.1995 330.003 84.7739C331.014 85.3482 331.77 86.701 331.631 86.777C331.493 86.853 330.686 85.6466 329.76 85.0391C328.834 84.4316 327.741 84.7001 327.75 84.5574C327.758 84.4226 327.883 84.3173 328.034 84.3124L328.061 84.3126Z" fill="#00160A"/>
<path fill-rule="evenodd" clip-rule="evenodd" d="M322.934 85.2376C322.729 86.353 322.78 87.0631 322.857 87.8553C322.934 88.6476 323.658 89.7883 323.731 90.2651C323.803 90.7419 322.361 88.7758 322.274 87.9422C322.201 87.2411 321.752 85.5269 322.253 85.0625C322.459 84.8723 322.985 84.9623 322.934 85.2376Z" fill="#00160A"/>
<path fill-rule="evenodd" clip-rule="evenodd" d="M317.562 83.5545C318.217 83.5545 318.483 83.5687 319.121 83.6789C319.282 83.7066 319.386 83.8431 319.354 83.9838C319.323 84.1245 319.167 84.2161 319.007 84.1884C318.78 84.1492 318.344 83.9823 317.622 83.989C316.634 83.9982 315.775 84.4792 315.732 84.3996C315.662 84.27 316.906 83.5545 317.562 83.5545Z" fill="#00160A"/>
<path fill-rule="evenodd" clip-rule="evenodd" d="M318.634 82.4437C318.793 82.4766 318.891 82.6164 318.854 82.756C318.816 82.8955 318.657 82.982 318.498 82.949C317.078 82.6551 315.939 82.663 315.135 82.6354C314.345 82.6083 312.571 82.717 312.519 82.581C312.467 82.4451 317.18 82.1427 318.634 82.4437Z" fill="#00160A"/>
<path fill-rule="evenodd" clip-rule="evenodd" d="M325.222 98.9195C325.438 98.9229 325.609 99.0785 325.606 99.2671C325.592 99.9635 325.703 100.455 325.918 100.738C326.82 101.925 327.586 102.726 328.303 102.992C328.323 103 328.37 103.01 328.442 103.022L328.55 103.039C328.631 103.051 328.971 103.096 329.031 103.104C329.255 103.135 329.44 103.165 329.621 103.201C330.019 103.28 330.351 103.381 330.625 103.521C331.45 103.943 331.994 104.56 332.047 105.166C332.109 105.866 331.527 106.389 330.498 106.554C327.973 106.956 326.205 106.561 325.274 105.334C324.305 104.132 323.337 103.135 322.372 102.342C321.422 101.563 320.578 101.061 319.851 100.836C319.648 100.773 319.542 100.577 319.614 100.4C319.686 100.222 319.909 100.129 320.112 100.192C320.956 100.454 321.884 101.005 322.906 101.844C323.912 102.67 324.914 103.702 325.918 104.948C326.652 105.915 328.108 106.241 330.358 105.881C331.026 105.775 331.296 105.532 331.269 105.218C331.238 104.865 330.854 104.43 330.231 104.111C330.037 104.012 329.776 103.932 329.448 103.867C329.307 103.839 329.16 103.815 328.985 103.79L328.421 103.713L328.312 103.696C328.177 103.674 328.081 103.652 327.998 103.621C327.462 103.422 326.91 102.993 326.333 102.389C325.952 101.991 325.66 101.632 325.268 101.117C324.949 100.697 324.808 100.077 324.825 99.255C324.829 99.0664 325.007 98.9162 325.222 98.9195Z" fill="#00160A"/>
<path fill-rule="evenodd" clip-rule="evenodd" d="M328.375 105.221C328.414 105.108 328.55 105.044 328.679 105.078C329.081 105.183 329.365 105.299 329.539 105.437C329.703 105.568 329.866 105.769 330.033 106.041C330.096 106.145 330.051 106.275 329.933 106.33C329.814 106.386 329.666 106.347 329.602 106.243C329.46 106.009 329.327 105.846 329.211 105.753C329.103 105.668 328.877 105.575 328.539 105.487C328.41 105.453 328.337 105.334 328.375 105.221Z" fill="#00160A"/>
<path fill-rule="evenodd" clip-rule="evenodd" d="M329.648 104.769C329.691 104.658 329.829 104.597 329.957 104.634C330.301 104.734 330.557 104.849 330.727 104.984C330.895 105.118 331.057 105.334 331.221 105.636C331.279 105.743 331.227 105.87 331.105 105.921C330.983 105.971 330.838 105.926 330.78 105.819C330.641 105.563 330.511 105.389 330.399 105.3C330.288 105.212 330.088 105.122 329.803 105.039C329.675 105.002 329.606 104.881 329.648 104.769Z" fill="#00160A"/>
<path fill-rule="evenodd" clip-rule="evenodd" d="M319.203 107.711C319.246 107.6 319.384 107.539 319.512 107.576C319.856 107.676 320.112 107.791 320.282 107.926C320.45 108.06 320.612 108.276 320.776 108.578C320.834 108.685 320.782 108.812 320.66 108.863C320.538 108.913 320.393 108.868 320.335 108.761C320.196 108.505 320.066 108.331 319.954 108.242C319.842 108.154 319.643 108.064 319.358 107.981C319.23 107.944 319.161 107.823 319.203 107.711Z" fill="#00160A"/>
<path fill-rule="evenodd" clip-rule="evenodd" d="M319.913 106.987C319.955 106.875 320.094 106.814 320.221 106.852C320.566 106.952 320.822 107.066 320.992 107.201C321.16 107.335 321.322 107.552 321.486 107.854C321.543 107.96 321.492 108.088 321.37 108.138C321.248 108.189 321.103 108.143 321.045 108.037C320.906 107.781 320.776 107.607 320.663 107.517C320.552 107.429 320.353 107.34 320.067 107.257C319.94 107.22 319.87 107.099 319.913 106.987Z" fill="#00160A"/>
<path fill-rule="evenodd" clip-rule="evenodd" d="M291.184 99.4333C291.343 99.3059 294.038 102.01 294.616 102.867C294.802 103.143 294.949 103.409 295.08 103.694C295.12 103.781 295.158 103.868 295.198 103.966L295.351 104.345C295.579 104.897 295.956 105.124 296.469 105.376C297.971 106.118 299.746 106.109 300.662 105.585C301.17 105.294 300.484 104.486 299.152 104.486C298.529 104.486 297.994 103.756 297.587 102.806C297.396 102.361 297.348 101.65 297.428 100.652C297.443 100.464 297.63 100.322 297.845 100.335C298.06 100.348 298.222 100.512 298.207 100.7C298.135 101.607 298.177 102.237 298.318 102.566L298.359 102.659C298.633 103.26 299.037 103.803 299.152 103.803C300.09 103.803 300.884 104.119 301.311 104.622C301.763 105.154 301.703 105.805 301.089 106.157C299.922 106.825 297.835 106.836 296.085 105.971C295.409 105.637 295.112 105.291 294.835 104.638L294.686 104.271C294.636 104.148 294.593 104.048 294.547 103.948C294.431 103.695 294.301 103.459 294.135 103.214C293.561 102.363 292.569 101.261 291.16 99.9159C291.014 99.7768 291.025 99.5608 291.184 99.4333Z" fill="#00160A"/>
<path fill-rule="evenodd" clip-rule="evenodd" d="M298.413 105.221C298.452 105.108 298.588 105.044 298.717 105.078C299.119 105.183 299.403 105.299 299.577 105.437C299.741 105.568 299.904 105.769 300.07 106.041C300.134 106.145 300.089 106.275 299.97 106.33C299.852 106.386 299.704 106.347 299.64 106.243C299.498 106.009 299.365 105.846 299.249 105.753C299.141 105.668 298.915 105.575 298.577 105.487C298.448 105.453 298.375 105.334 298.413 105.221Z" fill="#00160A"/>
<path fill-rule="evenodd" clip-rule="evenodd" d="M299.331 104.873C299.374 104.761 299.512 104.701 299.64 104.738C299.984 104.838 300.24 104.952 300.41 105.087C300.578 105.221 300.74 105.438 300.904 105.74C300.962 105.846 300.91 105.974 300.788 106.024C300.666 106.075 300.521 106.029 300.463 105.923C300.324 105.667 300.194 105.493 300.082 105.403C299.97 105.315 299.771 105.226 299.486 105.143C299.358 105.106 299.289 104.985 299.331 104.873Z" fill="#00160A"/>
<path fill-rule="evenodd" clip-rule="evenodd" d="M254.33 68.7437L254.247 68.7935C253.986 68.9532 253.483 69.2743 253.372 69.3425L253.361 69.3494C253.074 69.5225 252.88 69.6101 252.728 69.6352C250.052 70.0789 247.74 70.5755 246.158 71.6238C243.945 73.0896 242.75 75.6527 244.266 78.2322C245.345 80.0677 249.423 80.5267 251.811 79.5341C252.22 79.3643 252.655 79.1516 253.18 78.8706L253.398 78.7526C253.474 78.7115 253.552 78.6688 253.634 78.6231L254.206 78.3039L254.831 77.9536L255.06 77.827C257.358 76.5634 258.819 76.017 260.376 76.017C261.663 76.017 262.569 76.3262 263.707 77.0568L263.793 77.1124C263.991 77.2416 265.273 78.1366 265.706 78.4125C266.828 79.1273 267.936 79.6545 269.311 80.0663L269.432 80.1015C271.445 80.6714 275.295 80.991 281.015 81.0705C281.143 81.0723 281.263 81.0192 281.338 80.9285L281.561 80.6591C281.881 80.2747 282.138 79.9783 282.331 79.7711C282.563 79.5222 282.803 79.2941 283.05 79.0867C283.29 78.8849 283.15 78.529 282.818 78.5002L282.474 78.4695C276.892 77.9614 273.134 77.0726 271.223 75.828L271.084 75.7365C270.064 75.0622 269.091 74.3013 267.607 73.0557L265.69 71.444C264.932 70.812 264.665 70.6065 264.134 70.2118L264.051 70.15C262.81 69.2287 261.732 68.5971 260.687 68.2203C260.458 68.1376 260.231 68.0676 260.006 68.0106C257.679 67.4222 256.008 67.7492 254.33 68.7437ZM259.789 68.6669C259.986 68.7168 260.186 68.7785 260.39 68.8519C261.316 69.1858 262.296 69.7537 263.432 70.5869L263.877 70.9175C264.366 71.2857 264.705 71.5613 265.833 72.5096L267.17 73.6354C268.685 74.9043 269.677 75.6729 270.757 76.376L270.82 76.4168C272.781 77.6633 276.344 78.5395 281.526 79.0656L281.942 79.1066C281.945 79.1069 281.946 79.1109 281.944 79.1132C281.895 79.1624 281.846 79.2123 281.798 79.263L281.692 79.3767L281.61 79.466C281.455 79.6372 281.272 79.8497 281.058 80.1037C280.91 80.2812 280.689 80.3822 280.458 80.3785L280.349 80.3767C274.969 80.2811 271.364 79.9589 269.564 79.4199C268.318 79.0467 267.308 78.5749 266.288 77.9375L266.166 77.8602C265.75 77.5954 264.473 76.7039 264.26 76.5651C262.957 75.7133 261.884 75.3338 260.376 75.3338C258.628 75.3338 257.065 75.918 254.649 77.2463L254.277 77.4524L253.481 77.899C253.245 78.0311 253.058 78.1341 252.876 78.2322L252.674 78.3401C252.215 78.5837 251.831 78.7695 251.476 78.917C249.452 79.7585 246.528 79.059 245.652 77.5685C244.312 75.2887 244.784 73.6133 246.698 72.3449C248.161 71.3759 250.306 70.7321 252.874 70.3064C253.143 70.2618 253.402 70.1493 253.739 69.9503L253.804 69.912C253.904 69.8516 254.511 69.4632 254.743 69.3238L254.767 69.3093C256.267 68.4211 257.704 68.1398 259.789 68.6669Z" fill="#00160A"/>
<path fill-rule="evenodd" clip-rule="evenodd" d="M353.28 77.9504L353.244 78.0286L353.169 78.1903C352.209 80.3217 351.362 83.5873 350.622 87.995L350.581 88.2412C350.58 88.2438 350.577 88.2438 350.576 88.2413C350.289 86.7633 349.928 85.6149 349.487 84.7922C348.722 83.363 347.632 82.8234 346.343 83.3363C342.162 85.0006 342.411 91.7683 346.839 103.661C346.898 103.82 347.067 103.927 347.257 103.927H352.064C352.193 103.927 352.315 103.877 352.399 103.791C358.401 97.5958 361.09 93.431 360.433 91.1428L360.411 91.0703C359.813 89.1017 358.318 88.68 356.185 89.7377C356.161 89.7499 356.135 89.7242 356.147 89.6998L356.216 89.5616C359.915 82.0626 360.594 77.4452 358.094 75.6456C356.259 74.3244 354.584 75.1985 353.28 77.9504ZM357.608 75.9423C359.809 77.5266 359.026 82.7144 354.852 90.7551C354.661 91.1228 359.581 88.2413 359.581 91.3301L359.596 91.3888C360.07 93.29 357.625 97.1282 352.236 102.767L351.86 103.158L350.291 103.256C348.498 103.368 346.852 102.272 346.354 100.545C344.872 95.4074 342.486 85.1405 346.707 84.0358C348.334 83.6099 349.535 85.6781 350.131 91.2721C350.179 91.7302 350.94 91.7399 351.004 91.2832L351.056 90.9147C351.911 84.9317 352.927 80.7034 354.092 78.2447L354.158 78.1061C355.247 75.8766 356.378 75.0571 357.608 75.9423Z" fill="#00160A"/>
<path d="M357.536 76.2391C359.737 77.8233 358.845 82.6742 354.671 90.715C354.48 91.0826 354.983 91.4261 355.344 91.1744L355.491 91.0734C357.863 89.458 359.079 89.5815 359.581 91.3301L359.596 91.3888C360.07 93.29 357.625 97.1282 352.236 102.767L351.86 103.158H348.022C347.754 103.158 347.515 102.991 347.422 102.739C343.384 91.6635 343.224 85.4221 346.707 84.0358C348.313 83.3964 349.535 85.6781 350.131 91.2721C350.179 91.7302 350.94 91.7399 351.004 91.2832L351.056 90.9147C351.911 84.9317 352.927 80.7034 354.092 78.2447L354.158 78.1061C355.247 75.8766 356.307 75.3539 357.536 76.2391Z" fill="#979797"/>
<path d="M347.654 88.9356C347.654 89.6902 346.955 90.3019 346.092 90.3019C345.23 90.3019 344.531 89.6902 344.531 88.9356C344.531 88.181 345.23 87.5693 346.092 87.5693C346.955 87.5693 347.654 88.181 347.654 88.9356Z" fill="#E7EAEE"/>
<path d="M357.413 80.0546C357.413 80.8092 356.714 81.4209 355.852 81.4209C354.989 81.4209 354.29 80.8092 354.29 80.0546C354.29 79.3 354.989 78.6883 355.852 78.6883C356.714 78.6883 357.413 79.3 357.413 80.0546Z" fill="#E7EAEE"/>
<path d="M358.194 93.2053C358.194 93.9599 357.495 94.5716 356.632 94.5716C355.77 94.5716 355.071 93.9599 355.071 93.2053C355.071 92.4507 355.77 91.839 356.632 91.839C357.495 91.839 358.194 92.4507 358.194 93.2053Z" fill="#E7EAEE"/>
<path fill-rule="evenodd" clip-rule="evenodd" d="M274.28 104.775C274.008 104.846 273.732 104.877 273.45 104.885C270.265 104.968 261.627 105.515 261.471 105.221C261.261 104.827 271.597 104.31 273.851 104.278L274.556 104.27C276.081 104.256 274.955 104.598 274.28 104.775ZM314.414 104.077C314.656 104.071 314.858 104.238 314.864 104.451C314.871 104.663 314.679 104.839 314.437 104.845L310.514 104.93C308.072 104.979 305.242 105.03 301.06 105.102C300.817 105.106 300.617 104.937 300.612 104.725C300.607 104.513 300.8 104.337 301.043 104.333L308.448 104.201C310.696 104.159 312.502 104.121 314.414 104.077ZM324.532 103.897C324.775 103.894 324.974 104.064 324.978 104.277C324.982 104.49 324.789 104.665 324.546 104.668L323.517 104.679L320.368 104.699C319.709 104.704 319.193 104.712 318.585 104.725C318.342 104.731 318.141 104.562 318.135 104.349C318.129 104.137 318.321 103.96 318.563 103.955L319.338 103.94C319.845 103.932 320.36 103.927 321.045 103.922L323.663 103.907C323.967 103.905 324.243 103.901 324.532 103.897ZM352.694 103.158C352.894 103.158 353.093 103.147 353.293 103.143C353.865 103.131 355.447 103.148 359.539 103.416C359.781 103.432 359.963 103.616 359.944 103.828C359.926 104.04 357.08 103.933 353.188 103.927L352.118 103.928C349.26 103.939 346.606 104.007 342.2 104.166L336.639 104.371C334.266 104.456 332.85 104.498 331.129 104.533C330.886 104.538 330.685 104.37 330.679 104.158C330.674 103.946 330.865 103.77 331.108 103.765L332.49 103.733C334.135 103.692 335.825 103.634 338.821 103.522L341.998 103.404C346.813 103.23 349.556 103.162 352.694 103.158Z" fill="#00160A"/>
<path d="M339.687 47.8425L339.788 47.6806C340.575 46.4326 341.261 45.813 342.061 46.0151C342.126 46.0315 342.19 46.0539 342.252 46.0821C342.742 46.3045 342.86 46.718 342.722 47.2822C342.72 47.2902 342.731 47.2954 342.736 47.2889L342.737 47.288C342.969 46.9993 343.19 46.7763 343.42 46.6108L343.469 46.5762C343.98 46.2284 344.522 46.1961 345.012 46.5585C345.796 47.1371 345.707 48.1076 345.067 48.7049L345.032 48.7371C344.943 48.8158 344.889 48.9859 344.83 49.3865L344.778 49.7374C344.716 50.1423 344.674 50.3199 344.577 50.5942C344.392 51.1123 344.09 51.5444 343.62 51.8974C343.028 52.341 342.029 52.2791 340.623 51.7734C340.472 51.7191 340.4 51.5679 340.462 51.4357C340.524 51.3035 338.489 49.7333 338.428 49.8022L338.408 49.8222C338.295 49.9253 338.107 49.9285 337.99 49.8295L337.704 49.5885C337.532 49.4432 337.617 49.1886 337.852 49.1483C338.282 49.0745 338.615 48.9931 338.85 48.9061C339.047 48.8331 339.154 48.7632 339.18 48.7179C339.18 48.7179 339.607 47.9734 339.687 47.8425Z" fill="#979797"/>
<path fill-rule="evenodd" clip-rule="evenodd" d="M337.576 49.1742C337.078 49.1415 336.785 49.4731 336.785 49.8745C336.785 51.2642 339.379 53.1646 341.07 53.1646C341.566 53.1646 341.971 52.8544 341.827 52.3803C341.773 52.2016 341.648 52.0431 341.443 51.8477L341.398 51.8052C341.168 51.5913 340.93 51.4003 340.396 50.9985L339.579 50.3854C339.378 50.2335 339.059 49.9913 338.963 49.9192L338.847 49.8329C338.623 49.668 338.451 49.548 338.296 49.4525C338.024 49.2839 337.812 49.1897 337.576 49.1742ZM337.376 49.8745C337.376 49.3312 338.266 50.0824 339.337 50.8862L340.048 51.4187C340.919 52.0756 341.982 52.759 341.443 52.8092C339.738 52.968 337.376 50.9894 337.376 49.8745Z" fill="#00160A"/>
<path fill-rule="evenodd" clip-rule="evenodd" d="M337.713 45.5324C337.835 45.4376 338.446 45.0646 338.13 45.5544C337.815 46.0442 335.992 46.6655 337.815 49.1425C337.884 49.2367 337.8 49.4257 337.648 49.478C337.496 49.5302 337.324 49.4647 337.264 49.3316C336.804 48.3045 336.59 47.5609 336.631 47.0775C336.674 46.5652 337.042 46.0529 337.713 45.5324Z" fill="#00160A"/>
<path fill-rule="evenodd" clip-rule="evenodd" d="M335.435 46.3948C335.467 46.2546 335.783 45.9079 335.783 46.1919C335.783 46.476 335.319 47.1965 335.973 48.0085C336.626 48.8204 337.751 49.3711 337.655 49.4866C337.559 49.6021 337.374 49.6275 337.242 49.5434C336.295 48.9402 335.721 48.4682 335.504 48.0983C335.278 47.7124 335.263 47.1476 335.435 46.3948Z" fill="#00160A"/>
<path fill-rule="evenodd" clip-rule="evenodd" d="M339.687 47.8425L339.788 47.6806C340.575 46.4326 341.261 45.813 342.061 46.0151C342.126 46.0315 342.19 46.0539 342.252 46.0821C342.742 46.3045 342.86 46.718 342.722 47.2822C342.72 47.2902 342.731 47.2954 342.736 47.2889L342.737 47.288C342.969 46.9993 343.19 46.7763 343.42 46.6108L343.469 46.5762C343.98 46.2284 344.522 46.1961 345.012 46.5585C345.796 47.1371 345.707 48.1076 345.067 48.7049L345.032 48.7371C344.943 48.8158 344.889 48.9859 344.83 49.3865L344.778 49.7374C344.716 50.1423 344.674 50.3199 344.577 50.5942C344.392 51.1123 344.09 51.5444 343.62 51.8974C343.028 52.341 342.029 52.2791 340.623 51.7734C340.472 51.7191 340.4 51.5679 340.462 51.4357C340.524 51.3035 342.653 52.3862 343.469 51.5445C344.285 50.7028 344.373 48.9617 344.609 48.434C344.647 48.373 344.694 48.319 344.743 48.2667C345.117 47.8683 345.101 47.3016 344.631 46.954C344.372 46.7629 344.138 46.7769 343.833 46.9847C343.555 47.174 343.265 47.4989 342.931 47.9718L342.833 48.1129C342.669 48.3554 342.34 48.8583 342.296 48.9222L342.236 49.0093C342.034 49.299 341.775 49.4804 341.737 49.4881C341.699 49.4959 341.644 49.469 341.631 49.224C341.626 49.1434 341.65 49.0623 341.699 48.952L341.718 48.9093C341.778 48.7829 342.104 48.1889 342.127 48.1464C342.226 47.9593 342.306 47.7962 342.372 47.6425C342.638 47.0226 342.242 46.6605 341.98 46.5417C341.952 46.5289 341.924 46.5192 341.897 46.5124C341.491 46.4097 340.926 46.9374 340.266 47.9946L340.123 48.2286C340.017 48.405 339.913 48.5865 339.71 48.947C339.562 49.2092 339.167 49.3971 338.509 49.5487L338.481 49.555C338.477 49.5559 338.475 49.5603 338.476 49.5643C338.505 49.6438 338.489 49.7333 338.428 49.8022L338.408 49.8222C338.295 49.9253 338.107 49.9285 337.99 49.8295L337.704 49.5885C337.532 49.4432 337.617 49.1886 337.852 49.1483C338.282 49.0745 338.615 48.9931 338.85 48.9061C339.047 48.8331 339.154 48.7632 339.18 48.7179L339.456 48.2313C339.541 48.0841 339.607 47.9734 339.687 47.8425Z" fill="#00160A"/>
<path d="M344.24 48.6341C344.24 48.9003 343.939 49.1161 343.568 49.1161C343.197 49.1161 342.896 48.9003 342.896 48.6341C342.896 48.3678 343.197 48.152 343.568 48.152C343.939 48.152 344.24 48.3678 344.24 48.6341Z" fill="#EAC0B3"/>
<path d="M342.32 47.2901C342.32 47.5563 342.019 47.7721 341.648 47.7721C341.277 47.7721 340.976 47.5563 340.976 47.2901C340.976 47.0238 341.277 46.808 341.648 46.808C342.019 46.808 342.32 47.0238 342.32 47.2901Z" fill="#EAC0B3"/>
<path fill-rule="evenodd" clip-rule="evenodd" d="M337.517 50.6713C337.449 50.6184 337.368 50.5346 337.29 50.4382C337.237 50.373 337.148 50.3464 337.07 50.3769L336.912 50.4358C336.881 50.4485 336.86 50.4584 336.854 50.4664C336.836 50.4959 336.794 50.5072 336.76 50.4915C336.727 50.4759 336.713 50.4392 336.731 50.4098C336.744 50.3818 336.832 50.2939 336.996 50.2079C337.046 50.1818 337.067 50.1201 337.041 50.0706C337.006 50.0056 336.979 49.9445 336.964 49.8922C336.93 49.7791 336.957 49.6989 337.001 49.6707C337.045 49.6429 337.154 49.6377 337.32 49.7584C337.351 49.7787 337.356 49.8168 337.332 49.8432C337.309 49.8696 337.266 49.8745 337.235 49.8541C337.219 49.8439 337.203 49.8358 337.188 49.8293C337.171 49.8218 337.153 49.8387 337.159 49.8571C337.163 49.8726 337.17 49.8887 337.178 49.9045C337.237 50.0185 337.373 50.063 337.498 50.0333C337.571 50.0161 337.647 50.002 337.725 49.9927C337.803 49.9836 337.883 49.9818 337.965 49.9824C338.012 49.9796 338.053 50.0111 338.057 50.0526C338.06 50.0941 338.024 50.13 337.976 50.1327C337.784 50.149 337.607 50.1914 337.45 50.2392C337.425 50.2471 337.415 50.2775 337.431 50.2985C337.506 50.3971 337.584 50.4842 337.652 50.5362C337.694 50.5689 337.699 50.6257 337.662 50.6629C337.624 50.7003 337.559 50.704 337.517 50.6713Z" fill="#EAC0B3"/>
<path fill-rule="evenodd" clip-rule="evenodd" d="M292.367 96.8916C291.881 98.8934 289.538 99.4611 289.563 101.073C289.576 101.906 289.839 102.598 290.055 103.13C290.494 104.211 291.639 105.324 292.168 106.355C292.621 107.237 294.894 106.641 295.075 108.01C295.174 108.756 293.567 109.186 293.129 109.215C292.501 109.256 291.705 109.068 290.741 108.649C289.569 108.15 288.627 107.757 287.946 107.039C287.813 106.899 287.73 106.504 287.583 105.882C287.422 105.202 286.873 103.472 285.438 100.679C285.233 100.28 284.448 98.648 283.575 96.9784C282.855 95.6007 285.831 92.8407 287.151 92.9372C290.392 93.1744 292.71 95.4776 292.367 96.8916Z" fill="#979797"/>
<path fill-rule="evenodd" clip-rule="evenodd" d="M290.094 108.678C289.287 108.258 288.624 107.773 288.103 107.225C287.97 107.085 287.873 106.569 287.726 105.947C287.649 105.621 284.847 99.7408 283.923 97.5275C283.751 97.1145 284.169 97.4035 284.268 97.5275C284.804 98.2034 288.103 102.662 289.679 106.793" fill="#E7EAEE"/>
<path fill-rule="evenodd" clip-rule="evenodd" d="M290.594 108.478C290.679 108.496 290.763 108.52 290.843 108.554C291.75 108.948 292.481 109.122 293.028 109.086C293.615 109.047 294.572 108.584 294.615 108.19C294.683 107.557 294.487 107.377 293.519 107.057C293.239 106.965 292.48 106.985 291.311 107.14C291.097 107.168 290.898 107.04 290.866 106.853C290.834 106.667 290.98 106.493 291.194 106.464L291.386 106.44C292.582 106.29 293.366 106.276 293.795 106.418L293.922 106.461C295.084 106.863 295.497 107.279 295.392 108.254C295.303 109.08 294.008 109.706 293.087 109.767C292.4 109.812 291.572 109.623 290.597 109.21L290.499 109.167C289.278 108.649 288.307 108.011 287.588 107.253C287.493 107.154 287.433 107.021 287.371 106.817L287.356 106.768C287.333 106.689 287.31 106.601 287.283 106.491L287.129 105.827L287.105 105.73C286.85 104.732 286.113 102.891 284.995 100.703L284.825 100.374C284.72 100.174 283.222 98.0492 283.11 97.5512C283.052 97.2944 283.035 97.0555 283.048 96.8344C283.094 96.0736 283.539 96.4818 283.765 97.2096C283.959 97.8354 285.599 99.9887 286.182 101.64C286.786 103.348 287.418 105.171 288.341 106.661C289.012 107.745 289.499 108.258 290.594 108.478Z" fill="#00160A"/>
<path fill-rule="evenodd" clip-rule="evenodd" d="M292.616 108.12C292.655 108.007 292.791 107.943 292.92 107.976C293.322 108.081 293.606 108.197 293.78 108.335C293.944 108.466 294.107 108.667 294.273 108.94C294.337 109.044 294.292 109.173 294.173 109.229C294.055 109.284 293.907 109.245 293.843 109.141C293.701 108.908 293.568 108.744 293.452 108.651C293.344 108.566 293.118 108.474 292.78 108.385C292.651 108.352 292.578 108.233 292.616 108.12Z" fill="#00160A"/>
<path fill-rule="evenodd" clip-rule="evenodd" d="M293.298 107.461C293.34 107.349 293.478 107.289 293.606 107.326C293.95 107.426 294.206 107.54 294.376 107.675C294.545 107.809 294.706 108.026 294.87 108.328C294.928 108.434 294.876 108.562 294.754 108.612C294.633 108.663 294.487 108.617 294.429 108.511C294.291 108.255 294.16 108.081 294.048 107.991C293.937 107.903 293.737 107.814 293.452 107.731C293.324 107.694 293.255 107.573 293.298 107.461Z" fill="#00160A"/>
<path fill-rule="evenodd" clip-rule="evenodd" d="M290.855 93.702C291.713 94.0041 293.401 95.6788 293.14 96.6194C292.87 97.5919 292.474 97.9804 291.844 98.6253L291.778 98.6918C291.586 98.8831 290.792 99.5887 290.76 99.6184L290.685 99.691C289.978 100.389 289.689 101.162 290.264 102.585C290.686 103.628 291.379 104.813 292.336 105.943C292.462 106.092 292.776 106.53 292.606 106.641C292.435 106.751 292.032 106.394 291.906 106.245C290.906 105.064 290.181 103.919 289.732 102.809C289.054 101.133 289.218 100.442 290.153 99.5395L290.213 99.4832C290.313 99.3919 291.001 98.7799 291.183 98.6021L291.201 98.5841C291.789 97.9992 292.176 97.3795 292.425 96.4841C292.597 95.8651 291.874 94.7662 290.348 93.8743C289.335 93.2823 289.996 93.3998 290.855 93.702Z" fill="#00160A"/>
</svg>
