<svg width="20" height="20" viewBox="0 0 20 20" fill="none" xmlns="http://www.w3.org/2000/svg">
<path d="M4.16675 16.2502V5.16683C4.16675 4.23341 4.16675 3.76635 4.3484 3.40983C4.50819 3.09623 4.76298 2.84144 5.07658 2.68166C5.4331 2.5 5.90016 2.5 6.83358 2.5H14.5002C14.967 2.5 15.2006 2.5 15.3789 2.59083C15.5357 2.67072 15.6624 2.79811 15.7423 2.95492C15.8331 3.13318 15.8334 3.3667 15.8334 3.83341V13.6667C15.8334 14.1335 15.8331 14.3665 15.7423 14.5447C15.6624 14.7016 15.5359 14.8294 15.3791 14.9093C15.201 15 14.9676 15 14.5018 15H6.04175C5.00621 15 4.16675 15.8395 4.16675 16.875C4.16675 17.2202 4.44657 17.5 4.79175 17.5H13.6684C14.1342 17.5 14.3676 17.5 14.5457 17.4093C14.7025 17.3294 14.829 17.2016 14.9089 17.0448C14.9998 16.8666 15.0001 16.6334 15.0001 16.1667V15" stroke="#398C67" stroke-width="2" stroke-linecap="round" stroke-linejoin="round"/>
</svg>
